<svg id="Layer_1" data-name="Layer 1" xmlns="http://www.w3.org/2000/svg" viewBox="0 0 205.89 48.45">
    <defs>
        <style>.cls-1{fill:#fff;}</style>
    </defs>
    <title>amtrust-financial</title>
    <path class="cls-1" d="M68.62,3.44,74.48,19H62.55ZM54.9,30.87H58l3.65-9.43h13.8l3.69,9.43h3.1L70.36.55H67.13Z"
          transform="translate(0.06 -0.55)"/>
    <path class="cls-1"
          d="M84.5,30.87h2.68V18.64c0-4.59,1.91-8.07,6.54-8.07,3.4,0,4.63,2.46,4.59,5.43V30.87H101V18.47c0-4.08,1.32-7.9,5.95-7.9,3.82,0,5.18,2,5.18,5.56V30.87h2.67V16c0-5.18-2.46-7.69-7.26-7.69a7.41,7.41,0,0,0-7,4.29c-.81-2.89-3.4-4.29-6.29-4.29a7.65,7.65,0,0,0-7.18,4.33H87V9H84.5Z"
          transform="translate(0.06 -0.55)"/>
    <polygon class="cls-1"
             points="117.16 2.46 127.73 2.46 127.73 30.32 130.62 30.32 130.62 2.46 141.19 2.46 141.19 0 117.16 0 117.16 2.46"/>
    <path class="cls-1" d="M139.55,30.87h2.68V19.19a7.55,7.55,0,0,1,8.15-7.86V8.66a8.1,8.1,0,0,0-8.28,5.44H142V9h-2.46Z"
          transform="translate(0.06 -0.55)"/>
    <path class="cls-1"
          d="M170.66,9H168V20.47c0,4.46-2,8.79-6.58,8.79-4.25,0-5.73-2.08-5.86-6V9h-2.67V23.19c0,5.1,2.17,8.32,7.69,8.32a8.15,8.15,0,0,0,7.56-4.59h.09v3.95h2.46Z"
          transform="translate(0.06 -0.55)"/>
    <path class="cls-1"
          d="M191.51,15.37c-.17-4.76-3.65-7-8-7-3.87,0-8.24,1.7-8.24,6.16,0,3.74,2.63,4.93,6.12,5.86l3.44.76c2.42.59,4.8,1.44,4.8,4,0,3.06-3.48,4.16-6,4.16-3.57,0-6.24-1.87-6.46-5.48h-2.68c.42,5.35,3.91,7.73,9,7.73,4.08,0,8.79-1.83,8.79-6.58,0-3.82-3.18-5.61-6.24-6.07L182.46,18c-1.82-.47-4.54-1.32-4.54-3.69,0-2.85,2.8-3.78,5.18-3.78,3.06,0,5.61,1.49,5.73,4.8Z"
          transform="translate(0.06 -0.55)"/>
    <path class="cls-1"
          d="M200.37,2.38h-2.68V9h-3.82v2.25h3.82v15c0,3.74,1.19,4.93,4.76,4.93.81,0,1.57-.09,2.38-.09V28.75a21,21,0,0,1-2.29.13c-1.91-.13-2.17-1.15-2.17-2.89V11.21h4.46V9h-4.46Z"
          transform="translate(0.06 -0.55)"/>
    <polygon class="cls-1"
             points="55.43 39.2 55.43 48.45 56.61 48.45 56.61 44.13 62.44 44.13 62.44 43.2 56.61 43.2 56.61 40.14 62.72 40.14 62.72 39.2 55.43 39.2"/>
    <rect class="cls-1" x="73.55" y="39.2" width="1.22" height="9.24"/>
    <polygon class="cls-1"
             points="85.74 39.2 85.74 48.45 86.92 48.45 86.92 39.94 93.86 48.45 95.55 48.45 95.55 39.2 94.38 39.2 94.38 47.49 87.68 39.2 85.74 39.2"/>
    <path class="cls-1"
          d="M110.75,40.43l2.41,5.38h-4.89l2.41-5.38Zm-1-.68L105.55,49h1.25l1-2.22h5.82l1,2.22h1.22l-4.24-9.24Z"
          transform="translate(0.06 -0.55)"/>
    <polygon class="cls-1"
             points="125.91 39.2 125.91 48.45 127.09 48.45 127.09 39.94 134.03 48.45 135.72 48.45 135.72 39.2 134.55 39.2 134.55 47.49 127.85 39.2 125.91 39.2"/>
    <path class="cls-1"
          d="M146.24,44.76c0,3.48,1.06,4.23,4.82,4.23h.8c3,0,4.06-.88,4.06-2.61h-1.17c0,1.17-.75,1.66-2.93,1.66h-.75c-3,0-3.65-.43-3.65-3.29v-.85c0-2.8.73-3.29,3.45-3.29h.65c2.53,0,3.21.63,3.21,1.66h1.17c0-1.78-1.35-2.62-4.42-2.62h-.62c-3.41,0-4.63.87-4.63,4.26Z"
          transform="translate(0.06 -0.55)"/>
    <rect class="cls-1" x="166.78" y="39.2" width="1.21" height="9.24"/>
    <path class="cls-1"
          d="M183.34,40.43l2.41,5.38h-4.89l2.41-5.38Zm-1-.68L178.14,49h1.26l1-2.22h5.82l1,2.22h1.22l-4.24-9.24Z"
          transform="translate(0.06 -0.55)"/>
    <polygon class="cls-1"
             points="198.61 39.2 198.61 48.45 205.89 48.45 205.89 47.49 199.78 47.49 199.78 39.2 198.61 39.2"/>
    <polygon class="cls-1" points="44.71 48.45 10.32 48.45 13.61 39.95 41.38 39.95 44.71 48.45"/>
    <polygon class="cls-1" points="27.62 3.72 39.41 34.99 15.4 34.99 27.62 3.72"/>
    <polygon class="cls-1" points="0 0 23.79 0 4.25 48.45 0 48.45 0 0"/>
</svg>